<svg width="203" height="23" viewBox="0 0 203 23" fill="none" xmlns="http://www.w3.org/2000/svg">
<g clip-path="url(#clip0_2099_619)">
<path d="M0.292969 0.961426L8.01678 7.48137L1.71575 22.5286L32.8148 0.961426H0.292969Z" fill="#36A845"/>
<path d="M7.97494 7.48137L1.66309 22.5286L32.8156 0.961426L7.97494 7.48137Z" fill="#36A845"/>
<path d="M0.292969 0.961426L7.98565 7.48137L1.71002 22.5286L10.563 6.80097L0.292969 0.961426Z" fill="#36A845"/>
<path d="M65.4495 11.0202C65.9162 9.28146 67.317 8.26723 69.2427 8.26723C71.1978 8.26723 72.5692 9.39746 72.861 11.0202H65.4495ZM69.4177 5.34033C65.3033 5.34033 62.0645 8.52788 62.0645 12.6428C62.0645 16.8737 65.3033 20.0902 69.4764 20.0902C72.9778 20.0902 75.6914 18.1197 76.2166 15.1351H72.9485C72.657 16.3522 71.2852 17.1635 69.5345 17.1635C67.2295 17.1635 65.7706 15.8593 65.3617 13.7731H76.3041C76.3625 13.5124 76.3918 12.7877 76.3918 12.4111C76.3918 8.26723 73.2694 5.34033 69.4177 5.34033Z" fill="black"/>
<path d="M95.3345 5.34033C93.3797 5.34033 91.5997 6.29655 90.7827 7.83257C89.9071 6.12278 88.4484 5.34033 86.3765 5.34033C84.8885 5.34033 83.0791 5.89076 82.0288 7.62943L81.2831 5.63011H78.79V19.8003H82.0288V11.8603C82.0288 9.42635 83.6336 8.441 85.2094 8.441C87.1353 8.441 88.3316 9.71612 88.3316 11.8603V19.8003H91.5997V11.8603C91.5997 9.45522 93.1752 8.441 94.7803 8.441C96.706 8.441 97.8731 9.745 97.8731 11.8603V19.8003H101.171V11.1359C101.171 7.57167 98.7778 5.34033 95.3345 5.34033Z" fill="black"/>
<path d="M129.22 5.34033C127.323 5.34033 125.913 5.9537 124.768 7.26264L124.156 5.63011H121.663V19.8003H124.901V12.1212C124.901 9.88989 126.302 8.441 128.432 8.441C130.504 8.441 131.875 9.88989 131.875 12.1212V19.8003H135.143V11.7155C135.143 7.77432 132.867 5.34033 129.22 5.34033Z" fill="black"/>
<path d="M169.848 14.845L166.463 5.62988H163.896H162.597L163.293 7.28315L160.54 14.845L157.563 5.62988H154.062L159.227 19.8001H161.795L164.954 11.2265L168.564 19.8001H171.161L176.326 5.62988H172.824L169.848 14.845Z" fill="black"/>
<path d="M179.948 11.0202C180.415 9.28146 181.815 8.26723 183.741 8.26723C185.696 8.26723 187.068 9.39746 187.359 11.0202H179.948ZM183.916 5.34033C179.802 5.34033 176.563 8.52788 176.563 12.6428C176.563 16.8737 179.802 20.0902 183.975 20.0902C187.476 20.0902 190.19 18.1197 190.715 15.1351H187.447C187.155 16.3522 185.784 17.1635 184.033 17.1635C181.728 17.1635 180.269 15.8593 179.86 13.7731H190.803C190.861 13.5124 190.89 12.7877 190.89 12.4111C190.89 8.26723 187.768 5.34033 183.916 5.34033Z" fill="black"/>
<path d="M193.318 19.8005H196.557V0.75H193.318V19.8005Z" fill="black"/>
<path d="M199.607 19.8005H202.845V0.75H199.607V19.8005Z" fill="black"/>
<path d="M110.688 17.0331C108.341 17.0331 106.439 15.1 106.439 12.7151C106.439 10.3305 108.341 8.39731 110.688 8.39731C113.035 8.39731 114.937 10.3305 114.937 12.7151C114.937 15.1 113.035 17.0331 110.688 17.0331ZM115.492 7.18933C114.212 6.0396 112.531 5.34033 110.688 5.34033C110.613 5.34033 110.538 5.34379 110.464 5.34601C110.395 5.34428 110.328 5.34033 110.258 5.34033C106.465 5.34033 103.43 8.61477 103.43 12.7005C103.43 12.7033 103.431 12.7057 103.431 12.7082C103.431 12.7104 103.43 12.7129 103.43 12.7151C103.43 12.7793 103.434 12.8425 103.435 12.9064C103.437 12.9669 103.437 13.0278 103.44 13.0883C103.441 13.1095 103.443 13.1305 103.444 13.1517C103.658 17.027 106.606 20.0901 110.258 20.0901C110.328 20.0901 110.395 20.0862 110.464 20.0842C110.538 20.0867 110.613 20.0901 110.688 20.0901C112.531 20.0901 114.212 19.3909 115.492 18.2409L115.803 19.8003H118.574V5.63011H116.052L115.492 7.18933Z" fill="black"/>
<path d="M144.889 17.0442C142.542 17.0442 140.639 15.111 140.639 12.7262C140.639 10.3415 142.542 8.40839 144.889 8.40839C147.235 8.40839 149.138 10.3415 149.138 12.7262C149.138 15.111 147.235 17.0442 144.889 17.0442ZM149.246 7.0254C147.992 5.97267 146.383 5.34005 144.628 5.34005C144.553 5.34005 144.478 5.3435 144.404 5.34573C144.335 5.344 144.268 5.34005 144.199 5.34005C140.405 5.34005 137.371 8.61473 137.371 12.7005V12.7081V12.715C137.371 12.7792 137.374 12.8427 137.375 12.9061C137.377 12.9668 137.377 13.0278 137.38 13.088C137.381 13.1095 137.383 13.1305 137.384 13.1514C137.598 17.0267 140.546 20.0898 144.199 20.0898C144.268 20.0898 144.335 20.0859 144.404 20.0839C144.478 20.0864 144.553 20.0898 144.628 20.0898C146.43 20.0898 148.078 19.4209 149.347 18.3159L149.992 19.8H152.515V0.749512H149.246V7.0254Z" fill="black"/>
<path d="M50.5203 16.555H50.3657H46.8351V3.99556H50.3657H50.5203C54.0125 3.99556 56.8434 6.80719 56.8434 10.2754C56.8434 13.7434 54.0125 16.555 50.5203 16.555ZM50.7536 0.75H50.3657H46.8351H45.8178H43.4211H41.8232V1.04619L43.4211 2.14409V3.99556V16.555V19.8003H46.8351H50.3657H50.7536C56.0508 19.8003 60.3449 15.5359 60.3449 10.2754C60.3449 5.01447 56.0508 0.75 50.7536 0.75Z" fill="black"/>
</g>
<defs>
<clipPath id="clip0_2099_619">
<rect width="203" height="23" fill="white"/>
</clipPath>
</defs>
</svg>
