<svg width="105" height="43" viewBox="0 0 105 43" fill="none" xmlns="http://www.w3.org/2000/svg">
<g clip-path="url(#clip0_2099_567)">
<mask id="mask0_2099_567" style="mask-type:luminance" maskUnits="userSpaceOnUse" x="0" y="0" width="105" height="43">
<path d="M104.796 0.63916H0.845703V42.6392H104.796V0.63916Z" fill="white"/>
</mask>
<g mask="url(#mask0_2099_567)">
<path d="M52.5263 20.0185V18.9919C51.1821 19.7752 49.7207 20.3542 48.0393 20.3542C44.5396 20.3542 44.1387 17.9214 44.1387 15.3524V7.29004H48.0393V15.3475C48.0393 16.8899 48.3081 17.4251 49.5643 17.4251C50.3023 17.4251 51.2457 17.1332 52.3015 16.7099V7.29004H56.202V20.0137H52.5263V20.0185Z" fill="#181B2B"/>
<path d="M63.9145 20.3302C63.1764 20.3302 62.2086 20.2426 61.671 20.1307V24.5487H57.7705V7.29032H61.3826V8.09315C62.5703 7.29032 63.9194 6.95459 65.1707 6.95459C68.0398 6.95459 69.8581 8.51645 69.8581 13.0026V14.1411C69.8581 18.7683 67.5706 20.3302 63.9145 20.3302ZM65.9576 13.0074C65.9576 10.5746 65.3515 9.92748 63.8705 9.92748C63.2204 9.92748 62.5899 10.0394 61.627 10.4627V17.2259C62.3211 17.3378 62.9516 17.4254 63.5577 17.4254C65.1511 17.4254 65.9576 16.8902 65.9576 14.1411V13.0074Z" fill="#181B2B"/>
<path d="M77.102 20.3302C76.364 20.3302 75.3962 20.2426 74.8585 20.1307V24.5487H70.958V7.29032H74.5701V8.09315C75.7579 7.29032 77.1069 6.95459 78.3582 6.95459C81.2274 6.95459 83.0457 8.51645 83.0457 13.0026V14.1411C83.0457 18.7683 80.7581 20.3302 77.102 20.3302ZM79.1403 13.0074C79.1403 10.5746 78.5342 9.92748 77.0532 9.92748C76.4031 9.92748 75.7725 10.0394 74.8096 10.4627V17.2259C75.5037 17.3378 76.1342 17.4254 76.7403 17.4254C78.3338 17.4254 79.1403 16.8902 79.1403 14.1411V13.0074Z" fill="#181B2B"/>
<path d="M87.5284 14.7055V14.8856C87.5284 16.5593 87.7533 17.4741 90.51 17.4741C91.8102 17.4741 93.1592 17.3865 95.3099 17.2308V19.7998C94.3225 20.0431 92.5287 20.3594 90.3292 20.3594C85.6417 20.3594 83.667 18.7294 83.667 14.0633V13.3724C83.667 8.93007 85.7981 6.96436 89.8355 6.96436C94.6354 6.96436 95.9355 10.0005 95.9355 13.6643V14.7153H87.5284V14.7055ZM92.1035 12.4041C92.1035 10.9979 91.8102 9.72316 89.8159 9.72316C87.8852 9.72316 87.5529 11.0174 87.5529 12.4041V12.5841H92.1035V12.4041Z" fill="#181B2B"/>
<path d="M100.848 10.7984V20.0188H96.9473V7.29034H100.579V8.34131C101.835 7.20276 103.404 6.95947 104.798 6.95947V10.2194C103.385 10.2146 101.86 10.4627 100.848 10.7984Z" fill="#181B2B"/>
<path d="M52.3248 39.6417V31.628C52.3248 29.9737 51.8995 29.5066 50.6434 29.5066C49.656 29.5066 48.6491 29.8424 48.0626 30.11V39.6417H44.1621V22.252H48.0626V27.4777C49.0499 26.9862 50.4625 26.5824 51.8995 26.5824C55.4432 26.5824 56.2302 28.6357 56.2302 31.5842V39.6417H52.3248Z" fill="#181B2B"/>
<path d="M64.9465 39.6419V38.8147C64.1156 39.3742 62.6346 39.9776 60.9336 39.9776C58.5092 39.9776 57.1895 38.7514 57.1895 36.3381V35.8223C57.1895 32.431 59.7899 32.0272 63.4264 32.0272H64.6142V31.3362C64.6142 29.7744 64.2769 29.463 62.2582 29.463C61.1145 29.463 59.565 29.5311 58.1329 29.6868V27.3659C58.8514 27.0983 60.9141 26.5825 63.0647 26.5825C67.0581 26.5825 68.5147 27.8768 68.5147 31.3362V39.6419H64.9465ZM64.7461 34.0367H63.446C61.6766 34.0367 60.9141 34.2362 60.9141 35.691V36.2067C60.9141 37.209 61.5202 37.501 62.3706 37.501C63.3775 37.501 64.3649 37.1215 64.7461 36.8976V34.0367Z" fill="#181B2B"/>
<path d="M78.109 39.6419V31.5844C78.109 30.042 77.8158 29.5068 76.584 29.5068C75.8655 29.5068 74.8782 29.7987 73.8468 30.222V39.6419H69.9463V26.9183H73.622V27.9449C74.9222 27.1421 76.3592 26.5825 77.8158 26.5825C81.6723 26.5825 82.0095 28.8159 82.0095 31.5844V39.6419H78.109Z" fill="#181B2B"/>
<path d="M91.497 39.6417V38.9945C90.622 39.5298 89.4098 39.9774 87.8848 39.9774C84.8348 39.9774 83.041 38.1236 83.041 34.1289V32.5671C83.041 28.1004 85.26 26.5824 88.8477 26.5824C89.7666 26.5824 90.4852 26.6699 91.2037 26.7818V22.252H95.1042V39.6417H91.497ZM91.2526 29.6866C90.5585 29.5747 89.8155 29.5066 89.3219 29.5066C87.7284 29.5066 86.9464 29.9737 86.9464 32.5671V34.1289C86.9464 36.2698 87.5085 37.0288 89.1459 37.0288C89.884 37.0288 90.6025 36.8488 91.2526 36.5812V29.6866Z" fill="#181B2B"/>
<path d="M38.4039 29.2344C36.2044 28.0083 33.4379 26.787 31.7907 26.1739C31.7956 20.8656 31.7907 0.634277 31.7907 0.634277L22.4793 3.44661C21.0227 3.88451 20.0207 5.22256 20.0207 6.74063L20.0158 11.8885L8.94977 15.2117C7.93798 15.5182 7.23902 16.4427 7.22924 17.4937V17.5131L3.32385 18.6809C1.86238 19.1188 0.860366 20.4568 0.855479 21.9798L0.845703 36.129C0.845703 36.4307 1.00701 36.7031 1.26606 36.854L11.0857 42.4932C11.4768 42.717 11.9802 42.6149 12.249 42.2548C12.513 41.9045 12.4592 41.4131 12.1317 41.126L5.59181 35.3602C4.83908 34.6985 4.40895 33.7448 4.40895 32.7425C4.40895 32.7425 4.40895 31.059 4.41384 30.5871C4.98572 30.2173 6.8431 29.322 7.77668 29.0057C8.86667 31.531 10.9733 33.3848 13.818 34.0611C14.1309 35.3992 15.4017 36.9902 16.086 37.5644C16.2326 35.7446 17.0294 32.9031 19.1849 31.1855C17.2933 31.2001 14.6196 30.6454 13.818 27.6093C16.0078 27.3125 21.2085 27.1179 28.2714 29.5555C28.2714 30.0567 28.2714 31.6186 28.2665 32.8252C28.2665 33.8081 27.8413 34.7423 27.0983 35.3943L20.5633 41.1406C20.2798 41.3887 20.2016 41.7926 20.3678 42.1283L20.3775 42.1478C20.6024 42.6003 21.1645 42.7754 21.6044 42.5224L31.4045 36.8978C31.6783 36.7421 31.8444 36.455 31.8444 36.1436L31.8396 30.952L33.8973 31.9105C33.9022 31.9056 37.6561 29.6869 38.4039 29.2344ZM7.22924 25.556C6.39831 25.8431 5.02971 26.4416 4.3894 26.7724C4.3894 25.7409 4.3894 22.0528 4.3894 22.0528L7.22924 21.1916C7.22924 21.1964 7.21947 24.6364 7.22924 25.556ZM13.6323 23.9212C12.7623 24.0623 11.7407 24.2326 10.7925 24.471C10.7973 23.2497 10.7973 18.35 10.7973 18.35L13.6323 17.4888C13.6323 17.4937 13.6372 22.5491 13.6323 23.9212ZM20.0158 23.6341C19.268 23.5854 17.9141 23.5854 17.176 23.6098C17.1809 21.8776 17.176 16.4281 17.176 16.4281L20.0158 15.5718C20.0158 15.5718 20.0256 21.9652 20.0158 23.6341ZM28.247 24.9819C26.3309 24.4272 24.9477 24.1985 23.584 23.999C23.584 20.9239 23.584 11.543 23.5889 8.08354C23.5889 7.30991 24.0972 6.63359 24.8402 6.41463L28.247 5.40745C28.247 5.40745 28.2568 21.9263 28.247 24.9819Z" fill="#4AD569"/>
</g>
</g>
<defs>
<clipPath id="clip0_2099_567">
<rect width="105" height="43" fill="white"/>
</clipPath>
</defs>
</svg>
