<svg width="203" height="23" viewBox="0 0 203 23" fill="none" xmlns="http://www.w3.org/2000/svg">
<path d="M0.293274 0.961548L8.01709 7.48149L1.71606 22.5287L32.8151 0.961548H0.293274Z" fill="#36A845"/>
<path d="M7.97448 7.48149L1.66263 22.5287L32.8151 0.961548L7.97448 7.48149Z" fill="#36A845"/>
<path d="M0.293274 0.961548L7.98596 7.48149L1.71033 22.5287L10.5633 6.80109L0.293274 0.961548Z" fill="#36A845"/>
<path d="M65.4491 11.02C65.9158 9.28131 67.3166 8.26708 69.2423 8.26708C71.1974 8.26708 72.5688 9.39731 72.8606 11.02H65.4491ZM69.4173 5.34018C65.3029 5.34018 62.0641 8.52773 62.0641 12.6426C62.0641 16.8735 65.3029 20.09 69.476 20.09C72.9774 20.09 75.691 18.1195 76.2162 15.1349H72.9481C72.6566 16.352 71.2848 17.1633 69.5341 17.1633C67.2291 17.1633 65.7702 15.8591 65.3613 13.7729H76.3037C76.3621 13.5122 76.3914 12.7875 76.3914 12.4109C76.3914 8.26708 73.269 5.34018 69.4173 5.34018Z" fill="black"/>
<path d="M95.335 5.34024C93.3802 5.34024 91.6002 6.29646 90.7832 7.83248C89.9076 6.12269 88.4489 5.34024 86.377 5.34024C84.889 5.34024 83.0796 5.89067 82.0293 7.62934L81.2836 5.63002H78.7905V19.8002H82.0293V11.8602C82.0293 9.42626 83.6341 8.44091 85.2099 8.44091C87.1358 8.44091 88.3321 9.71603 88.3321 11.8602V19.8002H91.6002V11.8602C91.6002 9.45513 93.1757 8.44091 94.7808 8.44091C96.7065 8.44091 97.8736 9.74491 97.8736 11.8602V19.8002H101.171V11.1358C101.171 7.57158 98.7783 5.34024 95.335 5.34024Z" fill="black"/>
<path d="M129.22 5.34024C127.323 5.34024 125.913 5.95361 124.768 7.26255L124.156 5.63002H121.663V19.8002H124.901V12.1211C124.901 9.8898 126.302 8.44091 128.432 8.44091C130.504 8.44091 131.875 9.8898 131.875 12.1211V19.8002H135.143V11.7154C135.143 7.77423 132.867 5.34024 129.22 5.34024Z" fill="black"/>
<path d="M169.848 14.8451L166.463 5.62997H163.896H162.597L163.293 7.28324L160.54 14.8451L157.563 5.62997H154.062L159.227 19.8002H161.795L164.954 11.2266L168.564 19.8002H171.161L176.326 5.62997H172.824L169.848 14.8451Z" fill="black"/>
<path d="M179.948 11.02C180.415 9.28131 181.815 8.26708 183.741 8.26708C185.696 8.26708 187.068 9.39731 187.359 11.02H179.948ZM183.916 5.34018C179.802 5.34018 176.563 8.52773 176.563 12.6426C176.563 16.8735 179.802 20.09 183.975 20.09C187.476 20.09 190.19 18.1195 190.715 15.1349H187.447C187.155 16.352 185.784 17.1633 184.033 17.1633C181.728 17.1633 180.269 15.8591 179.86 13.7729H190.803C190.861 13.5122 190.89 12.7875 190.89 12.4109C190.89 8.26708 187.768 5.34018 183.916 5.34018Z" fill="black"/>
<path d="M193.318 19.8003H196.557V0.749786H193.318V19.8003Z" fill="black"/>
<path d="M199.607 19.8003H202.845V0.749786H199.607V19.8003Z" fill="black"/>
<path d="M110.688 17.033C108.341 17.033 106.439 15.0999 106.439 12.715C106.439 10.3304 108.341 8.39722 110.688 8.39722C113.035 8.39722 114.937 10.3304 114.937 12.715C114.937 15.0999 113.035 17.033 110.688 17.033ZM115.492 7.18924C114.212 6.03951 112.531 5.34024 110.688 5.34024C110.613 5.34024 110.538 5.3437 110.464 5.34592C110.395 5.34419 110.328 5.34024 110.258 5.34024C106.465 5.34024 103.43 8.61468 103.43 12.7004C103.43 12.7032 103.431 12.7056 103.431 12.7081C103.431 12.7103 103.43 12.7128 103.43 12.715C103.43 12.7792 103.434 12.8424 103.435 12.9063C103.437 12.9668 103.437 13.0277 103.44 13.0882C103.441 13.1094 103.443 13.1304 103.444 13.1516C103.658 17.0269 106.606 20.09 110.258 20.09C110.328 20.09 110.395 20.0861 110.464 20.0841C110.538 20.0866 110.613 20.09 110.688 20.09C112.531 20.09 114.212 19.3908 115.492 18.2408L115.803 19.8002H118.574V5.63002H116.052L115.492 7.18924Z" fill="black"/>
<path d="M144.889 17.0444C142.542 17.0444 140.639 15.1112 140.639 12.7264C140.639 10.3417 142.542 8.40857 144.889 8.40857C147.235 8.40857 149.138 10.3417 149.138 12.7264C149.138 15.1112 147.235 17.0444 144.889 17.0444ZM149.246 7.02558C147.992 5.97285 146.383 5.34023 144.628 5.34023C144.553 5.34023 144.478 5.34368 144.404 5.34591C144.335 5.34418 144.268 5.34023 144.199 5.34023C140.405 5.34023 137.371 8.61491 137.371 12.7007V12.7083V12.7152C137.371 12.7794 137.374 12.8429 137.375 12.9063C137.377 12.967 137.377 13.028 137.38 13.0882C137.381 13.1097 137.383 13.1307 137.384 13.1516C137.598 17.0269 140.546 20.09 144.199 20.09C144.268 20.09 144.335 20.0861 144.404 20.0841C144.478 20.0866 144.553 20.09 144.628 20.09C146.43 20.09 148.078 19.4211 149.347 18.3161L149.992 19.8002H152.515V0.749695H149.246V7.02558Z" fill="black"/>
<path d="M50.52 16.5548H50.3654H46.8348V3.99541H50.3654H50.52C54.0122 3.99541 56.8431 6.80704 56.8431 10.2752C56.8431 13.7432 54.0122 16.5548 50.52 16.5548ZM50.7533 0.749847H50.3654H46.8348H45.8175H43.4208H41.8229V1.04604L43.4208 2.14394V3.99541V16.5548V19.8001H46.8348H50.3654H50.7533C56.0505 19.8001 60.3446 15.5357 60.3446 10.2752C60.3446 5.01432 56.0505 0.749847 50.7533 0.749847Z" fill="black"/>
</svg>
