<svg xmlns="http://www.w3.org/2000/svg" width="1200" height="900" viewBox="0 0 1200 900" role="img" aria-label="Placeholder image">
  <defs>
    <linearGradient id="bg" x1="0" y1="0" x2="1" y2="1">
      <stop offset="0%" stop-color="#f3f4f6"/>
      <stop offset="100%" stop-color="#e5e7eb"/>
    </linearGradient>
  </defs>
  <rect width="1200" height="900" fill="url(#bg)"/>
  <rect x="80" y="80" width="1040" height="740" rx="48" fill="none" stroke="#9ca3af" stroke-width="6" stroke-dasharray="14 14"/>
  <g fill="#6b7280">
    <path d="M535 420c0-36 29-65 65-65s65 29 65 65-29 65-65 65-65-29-65-65zm65-45c-25 0-45 20-45 45s20 45 45 45 45-20 45-45-20-45-45-45z"/>
    <path d="M420 610l140-170 90 110 70-80 200 240H420zm44 0h414L720 486l-70 80-90-110-96 116z"/>
    <text x="600" y="710" text-anchor="middle" font-family="ui-sans-serif, system-ui, -apple-system, Segoe UI, Roboto, Helvetica, Arial" font-size="42" font-weight="700" fill="#6b7280">
      Placeholder
    </text>
  </g>
</svg>
