<svg width="1865" height="460" viewBox="0 0 1865 460" fill="none" xmlns="http://www.w3.org/2000/svg">
<path d="M1232.87 0L1232.85 360.27C1232.85 360.389 1232.8 360.504 1232.72 360.588C1232.64 360.673 1232.53 360.72 1232.41 360.72H1123.23C1123.08 360.72 1122.94 360.661 1122.83 360.556C1122.73 360.451 1122.67 360.309 1122.67 360.16L1122.65 0H1232.87Z" fill="#903DB9"/>
<path d="M0 232.75V222.29C1.59 175.12 26.6 134.06 67.56 110.82C101.58 91.5198 141.8 86.3198 180.51 92.1998C204 95.7598 228.92 105.25 247.82 119.9C273.02 139.433 288.763 164.87 295.05 196.21C297.217 207.01 298.127 218.857 297.78 231.75C297.733 233.483 297.297 240.473 296.47 252.72C296.462 252.863 296.399 252.998 296.293 253.097C296.187 253.195 296.046 253.25 295.9 253.25H111.86C111.801 253.25 111.743 253.264 111.691 253.291C111.638 253.318 111.593 253.356 111.559 253.403C111.525 253.45 111.502 253.504 111.494 253.561C111.485 253.618 111.491 253.676 111.51 253.73C112.237 255.997 112.85 257.56 113.35 258.42C120.523 270.773 130.787 278.607 144.14 281.92C154.693 284.54 166.063 285.14 178.25 283.72C188.423 282.54 197.847 279.39 206.52 274.27C211.627 271.257 216.097 268.267 219.93 265.3C220.038 265.215 220.174 265.173 220.312 265.182C220.45 265.191 220.581 265.251 220.68 265.35L277.47 322.14C277.663 322.333 277.773 322.592 277.776 322.864C277.78 323.135 277.677 323.396 277.49 323.59C261.117 340.59 241.293 352.243 218.02 358.55C203.853 362.39 189.033 364.653 173.56 365.34C130.62 367.23 87.84 359.24 52.54 333.46C20.06 309.73 1.49 272.78 0 232.75ZM152.06 200.23C178.82 200.237 192.917 200.23 194.35 200.21C194.409 200.208 194.466 200.193 194.518 200.168C194.571 200.142 194.617 200.106 194.654 200.061C194.691 200.016 194.718 199.965 194.733 199.909C194.748 199.854 194.75 199.796 194.74 199.74C193.707 193.453 191.313 187.597 187.56 182.17C179.28 170.21 166.73 164.87 152.07 164.87C137.4 164.86 124.85 170.19 116.57 182.15C112.81 187.577 110.413 193.433 109.38 199.72C109.37 199.776 109.372 199.834 109.387 199.889C109.402 199.945 109.429 199.996 109.466 200.041C109.503 200.086 109.549 200.122 109.602 200.148C109.654 200.173 109.711 200.188 109.77 200.19C111.197 200.21 125.293 200.223 152.06 200.23Z" fill="#903DB9"/>
<path d="M420.73 118.82C423.037 116.687 424.887 115.014 426.28 113.8C435.64 105.64 446.36 99.4735 458.44 95.3002C462.6 93.8669 467.187 92.7169 472.2 91.8502C477.473 90.9369 482.167 90.3669 486.28 90.1402C488.56 90.0135 493.217 90.0002 500.25 90.1002C508.55 90.2069 517.253 91.3935 526.36 93.6602C548.5 99.1669 565.957 111.19 578.73 129.73C578.765 129.779 578.81 129.819 578.862 129.848C578.915 129.876 578.973 129.893 579.031 129.896C579.09 129.899 579.149 129.888 579.202 129.864C579.256 129.841 579.303 129.805 579.34 129.76C595.973 110.507 616.337 98.2302 640.43 92.9302C668.22 86.8202 700.5 89.5202 725.15 103.7C744.603 114.894 758.427 131.59 766.62 153.79C769.573 161.77 771.683 170.604 772.95 180.29C773.997 188.33 774.53 196.737 774.55 205.51C774.657 247.497 774.673 299.117 774.6 360.37C774.6 360.468 774.561 360.562 774.492 360.632C774.422 360.701 774.328 360.74 774.23 360.74H664.97C664.891 360.74 664.813 360.725 664.74 360.695C664.668 360.664 664.601 360.62 664.546 360.564C664.49 360.509 664.446 360.443 664.416 360.37C664.385 360.297 664.37 360.219 664.37 360.14C664.35 314.974 664.347 269.667 664.36 224.22C664.36 220.194 663.833 215.197 662.78 209.23C660.09 194.11 651.64 182.5 634.97 182.35C622.017 182.23 612.29 188.024 605.79 199.73C603.93 203.077 602.443 207.93 601.33 214.29C600.43 219.457 599.983 225.28 599.99 231.76C600.03 284.427 600.023 327.227 599.97 360.16C599.97 360.314 599.909 360.462 599.8 360.57C599.691 360.679 599.544 360.74 599.39 360.74H490.05C490.003 360.74 489.956 360.731 489.912 360.712C489.869 360.693 489.829 360.666 489.795 360.632C489.762 360.597 489.735 360.557 489.717 360.512C489.699 360.467 489.69 360.419 489.69 360.37C489.81 333.984 489.807 288.207 489.68 223.04C489.66 214.927 488.31 207.297 485.63 200.15C481.88 190.15 474.39 183.56 463.49 182.53C453.81 181.604 445.577 184.084 438.79 189.97C427.69 199.59 425.43 216.2 425.41 230C425.37 252.94 425.36 296.4 425.38 360.38C425.38 360.476 425.343 360.567 425.277 360.635C425.212 360.702 425.123 360.74 425.03 360.74H315.86C315.698 360.74 315.543 360.676 315.429 360.562C315.314 360.447 315.25 360.292 315.25 360.13V95.3802C315.25 95.2131 315.316 95.0529 315.435 94.9347C315.553 94.8166 315.713 94.7502 315.88 94.7502L419.59 94.7602C419.731 94.7602 419.865 94.816 419.965 94.9154C420.064 95.0148 420.12 95.1496 420.12 95.2902V118.56C420.12 118.631 420.14 118.7 420.179 118.759C420.218 118.818 420.274 118.865 420.339 118.892C420.404 118.92 420.476 118.928 420.545 118.915C420.615 118.902 420.679 118.869 420.73 118.82Z" fill="#903DB9"/>
<path d="M907.48 343.29C907.441 343.251 907.391 343.225 907.337 343.215C907.283 343.205 907.227 343.212 907.176 343.234C907.125 343.256 907.081 343.293 907.05 343.341C907.018 343.388 907.001 343.443 907 343.5V454.78C907 454.87 906.964 454.957 906.9 455.02C906.837 455.084 906.75 455.12 906.66 455.12H797.29C797.219 455.12 797.149 455.106 797.083 455.079C797.018 455.052 796.958 455.012 796.908 454.962C796.858 454.912 796.818 454.852 796.791 454.787C796.764 454.721 796.75 454.651 796.75 454.58V95.0599C796.75 94.9803 796.782 94.904 796.838 94.8478C796.894 94.7915 796.97 94.7599 797.05 94.7599H901.06C901.134 94.7599 901.206 94.7744 901.274 94.8025C901.342 94.8307 901.404 94.8719 901.456 94.9239C901.508 94.9759 901.549 95.0377 901.577 95.1056C901.606 95.1736 901.62 95.2464 901.62 95.3199V116.34C901.618 116.365 901.625 116.389 901.638 116.41C901.652 116.43 901.672 116.446 901.696 116.454C901.72 116.463 901.747 116.464 901.772 116.458C901.798 116.452 901.822 116.439 901.84 116.42C907.007 110.74 912.963 106.003 919.71 102.21C939.39 91.1599 963.89 88.6399 986.36 90.4399C1022.79 93.3499 1056.11 111.31 1077.51 141.19C1101.51 174.7 1107.92 217.28 1101.15 257.51C1095.62 290.4 1078.38 321.31 1051.23 341.18C1023.02 361.82 987.87 369.36 953.33 364.11C936.03 361.48 920.4 355.34 907.48 343.29ZM905.1 227.87C905.1 241.42 907.7 254.86 916.58 265.57C924.4 275.02 935.55 280.18 948.49 280.17C961.42 280.17 972.57 275 980.39 265.56C989.26 254.84 991.85 241.4 991.85 227.85C991.84 214.3 989.24 200.86 980.37 190.14C972.54 180.7 961.4 175.54 948.46 175.54C935.52 175.55 924.38 180.71 916.56 190.16C907.69 200.88 905.09 214.32 905.1 227.87Z" fill="#903DB9"/>
<path d="M1403.47 89.8999C1435.32 89.8999 1465.63 96.6699 1492.78 112.54C1534.74 137.07 1558.59 179.13 1558.58 227.72C1558.58 276.31 1534.72 318.36 1492.76 342.88C1465.61 358.75 1435.29 365.52 1403.45 365.52C1371.6 365.51 1341.28 358.74 1314.13 342.87C1272.17 318.34 1248.33 276.28 1248.33 227.69C1248.33 179.1 1272.19 137.05 1314.15 112.53C1341.31 96.6599 1371.62 89.8899 1403.47 89.8999ZM1360 227.79C1360.01 241.34 1362.61 254.78 1371.49 265.49C1379.31 274.93 1390.46 280.08 1403.4 280.08C1416.33 280.07 1427.48 274.9 1435.29 265.45C1444.16 254.73 1446.75 241.29 1446.74 227.74C1446.73 214.2 1444.13 200.76 1435.25 190.05C1427.42 180.61 1416.28 175.45 1403.34 175.46C1390.4 175.46 1379.26 180.63 1371.45 190.08C1362.58 200.8 1359.99 214.24 1360 227.79Z" fill="#903DB9"/>
<path d="M1704.22 236.66L1759.89 95.31C1759.95 95.145 1760.07 95.0032 1760.21 94.9033C1760.36 94.8034 1760.53 94.75 1760.71 94.75H1863.83C1863.9 94.751 1863.97 94.7696 1864.04 94.8042C1864.1 94.8389 1864.15 94.8885 1864.19 94.9487C1864.23 95.0089 1864.26 95.0779 1864.26 95.1497C1864.27 95.2214 1864.26 95.2936 1864.23 95.36C1834.42 169.08 1797.69 259.887 1754.02 367.78C1746.09 387.39 1735.58 406.73 1721.32 422.57C1703.48 442.39 1679.23 453.75 1653.09 457.84C1623.33 462.493 1594.56 459.377 1566.77 448.49C1559.03 445.457 1551.95 441.473 1545.53 436.54C1545.38 436.427 1545.28 436.267 1545.24 436.089C1545.2 435.91 1545.22 435.723 1545.3 435.56L1581.35 361.3C1581.38 361.237 1581.42 361.181 1581.48 361.137C1581.53 361.092 1581.6 361.06 1581.66 361.043C1581.73 361.026 1581.81 361.024 1581.88 361.037C1581.95 361.051 1582.01 361.079 1582.07 361.12C1595.33 370.76 1611.88 376.59 1628.26 374.32C1635.21 373.36 1643.2 370.03 1647.55 364.44C1647.65 364.313 1647.71 364.162 1647.73 364.002C1647.75 363.843 1647.73 363.68 1647.67 363.53L1535.98 95.34C1535.95 95.2744 1535.94 95.2033 1535.95 95.133C1535.96 95.0626 1535.98 94.9953 1536.02 94.9369C1536.06 94.8786 1536.11 94.831 1536.17 94.7984C1536.23 94.7658 1536.3 94.7492 1536.37 94.75L1648.31 94.76C1648.48 94.7606 1648.64 94.8106 1648.77 94.9034C1648.91 94.9962 1649.01 95.1275 1649.07 95.28L1703.75 236.66C1703.77 236.708 1703.8 236.75 1703.84 236.779C1703.88 236.809 1703.93 236.825 1703.99 236.825C1704.04 236.825 1704.09 236.809 1704.13 236.779C1704.17 236.75 1704.2 236.708 1704.22 236.66Z" fill="#903DB9"/>
</svg>
