<svg width="1004" height="219" viewBox="0 0 1004 219" fill="none" xmlns="http://www.w3.org/2000/svg">
<path d="M213.654 30.4971C213.672 30.4441 213.672 30.3867 213.653 30.334C213.634 30.2813 213.599 30.2364 213.551 30.2065C213.504 30.1765 213.448 30.1633 213.393 30.1688C213.337 30.1744 213.285 30.1984 213.244 30.2371L178.414 61.0171C178.252 61.1586 178.054 61.253 177.842 61.29C177.631 61.327 177.414 61.3053 177.214 61.2271C167.401 57.4004 157.184 54.7538 146.564 53.2871C146.237 53.243 145.932 53.097 145.693 52.8696C145.454 52.6423 145.292 52.3453 145.231 52.0208C145.17 51.6963 145.213 51.3609 145.354 51.0622C145.494 50.7635 145.726 50.5168 146.014 50.3571C152.814 46.5904 182.661 29.9404 235.554 0.407103C236.334 -0.0328972 237.011 -0.116231 237.584 0.157103C238.358 0.523769 238.661 1.1271 238.494 1.9671C228.128 54.0538 222.061 84.5271 220.294 93.3871C220.174 93.9938 219.871 94.4738 219.384 94.8271C219.245 94.9286 219.088 95.0028 218.924 95.0449C218.759 95.087 218.59 95.0961 218.428 95.0716C218.266 95.0471 218.114 94.9895 217.983 94.9026C217.851 94.8157 217.743 94.7014 217.664 94.5671C216.611 92.7338 215.014 90.6671 212.874 88.3671C205.781 80.7204 198.121 73.8871 189.895 67.8671C189.822 67.816 189.734 67.7901 189.644 67.7934C189.555 67.7968 189.47 67.8293 189.402 67.8857C189.334 67.9422 189.287 68.0193 189.27 68.1047C189.252 68.1902 189.264 68.279 189.304 68.3571C192.044 73.9704 193.628 79.9004 194.054 86.1471C194.194 88.1271 194.054 89.3671 192.904 91.0371C179.778 110.104 167.608 128.087 156.395 144.987C152.041 151.54 143.834 162.977 131.774 179.297C123.308 190.75 116.814 198.337 112.294 202.057C90.5045 219.957 60.9745 224.057 35.4745 212.097C10.7645 200.517 -2.57551 176.557 0.414486 149.397C3.59449 120.477 18.8845 94.3871 43.8445 79.2071C84.0845 54.7271 141.914 61.4671 154.424 114.617C154.445 114.697 154.488 114.77 154.548 114.826C154.608 114.882 154.683 114.92 154.764 114.935C154.846 114.95 154.929 114.941 155.006 114.909C155.082 114.878 155.147 114.825 155.194 114.757C173.194 88.3371 192.574 60.4738 213.334 31.1671C213.468 30.9804 213.574 30.7571 213.654 30.4971ZM142.514 132.387C142.284 109.937 132.794 89.7971 110.404 82.9971C85.8245 75.5371 62.9945 96.3771 51.2245 115.327C41.8945 130.337 36.0645 147.407 36.3045 165.137C36.4745 178.097 39.8445 191.317 51.8045 197.657C64.5245 204.397 79.8745 202.477 91.9245 194.957C99.1745 190.437 104.804 184.967 110.164 178.377C120.614 165.507 130.584 152.497 139.484 138.567C140.364 137.2 141.248 135.667 142.134 133.967C142.39 133.481 142.521 132.938 142.514 132.387Z" fill="black"/>
<path d="M395.114 95.1272C401.112 95.1272 405.974 90.265 405.974 84.2672C405.974 78.2694 401.112 73.4072 395.114 73.4072C389.117 73.4072 384.254 78.2694 384.254 84.2672C384.254 90.265 389.117 95.1272 395.114 95.1272Z" fill="black"/>
<path d="M526.834 105.547C537.674 102.977 548.684 101.727 559.054 105.527C571.794 110.177 576.854 122.967 577.014 135.917C577.168 149.024 577.194 163.607 577.094 179.667C577.088 180.84 576.998 181.95 576.824 182.997C576.768 183.319 576.601 183.611 576.352 183.821C576.103 184.032 575.789 184.147 575.464 184.147H561.094C560.853 184.147 560.615 184.099 560.392 184.007C560.169 183.914 559.967 183.779 559.797 183.608C559.627 183.437 559.492 183.234 559.401 183.011C559.31 182.787 559.263 182.548 559.264 182.307C559.258 160.44 559.224 145.97 559.164 138.897C559.074 129.477 556.484 120.307 545.764 118.797C539.078 117.857 532.651 118.477 526.484 120.657C526.335 120.709 526.206 120.806 526.114 120.936C526.023 121.065 525.974 121.219 525.974 121.377L525.954 182.517C525.955 182.92 525.797 183.307 525.515 183.596C525.233 183.885 524.849 184.054 524.444 184.067C521.178 184.18 516.754 184.22 511.174 184.187C509.281 184.174 508.334 183.257 508.334 181.437C508.348 175.017 508.364 140.024 508.384 76.4571C508.384 74.6838 509.341 73.7971 511.254 73.7971C515.394 73.8038 519.484 73.8205 523.524 73.8471C525.124 73.8538 525.931 74.6038 525.944 76.0971C526.004 84.9905 526.001 94.5704 525.934 104.837C525.934 104.947 525.959 105.056 526.008 105.156C526.056 105.255 526.126 105.342 526.212 105.41C526.299 105.479 526.4 105.526 526.508 105.55C526.615 105.574 526.727 105.573 526.834 105.547Z" fill="black"/>
<path d="M751.395 170.547C751.763 170.542 752.121 170.672 752.4 170.914C752.678 171.156 752.858 171.491 752.905 171.857L754.095 181.567C754.155 182.065 754.046 182.569 753.784 182.997C753.523 183.426 753.125 183.753 752.655 183.927C746.981 185.994 740.721 186.564 733.875 185.637C722.765 184.137 722.115 174.997 722.135 165.907C722.181 145.974 722.178 116.021 722.125 76.0472C722.123 75.7995 722.171 75.554 722.266 75.3247C722.36 75.0955 722.499 74.8871 722.675 74.7114C722.85 74.5358 723.059 74.3964 723.289 74.3013C723.519 74.2062 723.766 74.1572 724.015 74.1572H738.105C738.58 74.1572 739.037 74.3455 739.374 74.6809C739.711 75.0163 739.902 75.4716 739.905 75.9472C739.958 98.0672 739.961 126.721 739.915 161.907C739.915 165.757 739.405 171.147 745.095 170.837C748.895 170.624 750.995 170.527 751.395 170.547Z" fill="black"/>
<path d="M872.165 105.837C882.995 103.257 894.005 102.007 904.375 105.797C917.115 110.447 922.175 123.227 922.335 136.177C922.495 149.277 922.528 163.854 922.435 179.907C922.428 181.081 922.338 182.191 922.165 183.237C922.108 183.559 921.941 183.851 921.692 184.061C921.443 184.272 921.129 184.387 920.805 184.387H906.445C906.204 184.387 905.966 184.34 905.744 184.248C905.522 184.156 905.321 184.021 905.151 183.851C904.981 183.681 904.846 183.48 904.754 183.257C904.662 183.035 904.615 182.797 904.615 182.557C904.601 160.697 904.561 146.231 904.495 139.157C904.405 129.747 901.805 120.577 891.095 119.077C884.408 118.137 877.985 118.757 871.825 120.937C871.675 120.989 871.546 121.087 871.454 121.216C871.363 121.345 871.314 121.499 871.315 121.657V182.777C871.315 183.18 871.157 183.567 870.875 183.856C870.594 184.145 870.21 184.314 869.805 184.327C866.538 184.441 862.118 184.484 856.545 184.457C854.651 184.444 853.705 183.527 853.705 181.707C853.711 175.287 853.711 140.307 853.705 76.7672C853.705 74.9938 854.661 74.1072 856.575 74.1072C860.715 74.1072 864.805 74.1205 868.845 74.1472C870.445 74.1539 871.251 74.9039 871.265 76.3972C871.325 85.2839 871.325 94.8605 871.265 105.127C871.265 105.238 871.29 105.346 871.338 105.446C871.386 105.545 871.456 105.632 871.542 105.7C871.629 105.769 871.73 105.817 871.838 105.84C871.946 105.864 872.057 105.863 872.165 105.837Z" fill="black"/>
<path d="M322.204 120.547C336.664 120.547 344.348 120.531 345.254 120.497C345.349 120.492 345.438 120.452 345.503 120.385C345.568 120.318 345.604 120.229 345.604 120.137C345.624 117.211 345.638 104.311 345.644 81.4372C345.651 79.5439 346.448 78.5772 348.034 78.5372C353.354 78.4106 357.714 78.4006 361.114 78.5072C363.154 78.5772 364.184 79.3872 364.184 81.4072C364.178 87.4939 364.191 120.337 364.224 179.937C364.231 181.711 363.831 182.964 363.024 183.697C362.761 183.942 362.416 184.081 362.054 184.087C353.821 184.261 349.041 184.231 347.714 183.997C346.308 183.751 345.608 182.794 345.614 181.127C345.701 164.594 345.688 149.947 345.574 137.187C345.572 137.071 345.525 136.961 345.443 136.879C345.361 136.797 345.25 136.75 345.134 136.747C343.408 136.707 335.768 136.691 322.214 136.697C308.654 136.697 301.011 136.714 299.284 136.747C299.167 136.75 299.055 136.798 298.973 136.882C298.89 136.967 298.844 137.08 298.844 137.197C298.738 149.957 298.731 164.604 298.824 181.137C298.831 182.804 298.131 183.761 296.724 184.007C295.398 184.241 290.618 184.271 282.384 184.097C282.023 184.091 281.678 183.952 281.414 183.707C280.608 182.974 280.208 181.721 280.214 179.947C280.228 120.347 280.228 87.5039 280.214 81.4172C280.214 79.3972 281.244 78.5872 283.284 78.5172C286.684 78.4106 291.044 78.4206 296.364 78.5472C297.951 78.5872 298.748 79.5539 298.754 81.4472C298.774 104.321 298.794 117.221 298.814 120.147C298.814 120.239 298.851 120.328 298.916 120.395C298.981 120.462 299.07 120.502 299.164 120.507C300.064 120.541 307.744 120.554 322.204 120.547Z" fill="black"/>
<path d="M662.594 78.5971C667.584 78.5971 672.924 77.9871 674.684 83.0671C689.564 125.74 700.794 158.397 708.374 181.037C708.601 181.704 708.708 182.13 708.694 182.317C708.665 182.833 708.446 183.321 708.078 183.685C707.71 184.048 707.221 184.263 706.704 184.287C702.364 184.474 697.554 184.524 692.274 184.437C690.254 184.404 688.968 183.554 688.414 181.887C686.461 176.014 684.368 169.537 682.134 162.457C682.036 162.148 681.843 161.879 681.585 161.687C681.326 161.495 681.014 161.39 680.694 161.387C680.501 161.387 674.481 161.39 662.634 161.397C650.788 161.404 644.771 161.407 644.584 161.407C644.264 161.41 643.953 161.515 643.694 161.707C643.436 161.899 643.243 162.168 643.144 162.477C640.918 169.557 638.828 176.034 636.874 181.907C636.328 183.574 635.044 184.427 633.024 184.467C627.744 184.554 622.934 184.507 618.594 184.327C618.076 184.306 617.584 184.092 617.214 183.728C616.845 183.364 616.624 182.875 616.594 182.357C616.581 182.17 616.688 181.744 616.914 181.077C624.474 158.43 635.674 125.764 650.514 83.0771C652.274 77.9971 657.614 78.5971 662.594 78.5971ZM648.274 145.027C648.257 145.085 648.254 145.146 648.264 145.205C648.275 145.265 648.299 145.321 648.335 145.369C648.371 145.418 648.417 145.457 648.471 145.484C648.525 145.512 648.584 145.526 648.644 145.527L676.274 145.487C676.337 145.489 676.398 145.475 676.454 145.448C676.51 145.42 676.559 145.38 676.596 145.33C676.633 145.28 676.658 145.222 676.668 145.161C676.678 145.099 676.674 145.036 676.654 144.977L662.754 99.2271C662.731 99.1456 662.682 99.0739 662.614 99.0229C662.547 98.9718 662.464 98.9442 662.379 98.9442C662.295 98.9442 662.212 98.9718 662.144 99.0229C662.077 99.0739 662.028 99.1456 662.004 99.2271L648.274 145.027Z" fill="black"/>
<path d="M472.305 182.887C458.205 185.967 442.415 187.427 430.905 176.877C424.735 171.207 421.495 161.937 420.545 153.647C417.905 130.537 425.555 106.527 452.475 103.757C463.875 102.587 478.095 104.027 489.065 108.867C489.679 109.141 490.202 109.587 490.571 110.151C490.939 110.714 491.139 111.373 491.145 112.047C491.345 138.007 491.321 160.884 491.075 180.677C491.048 182.624 490.728 185.247 490.115 188.547C486.245 209.317 469.835 215.487 451.005 218.107C449.245 218.354 448.271 217.744 448.085 216.277C447.345 210.671 446.838 206.814 446.565 204.707C446.499 204.219 446.622 203.724 446.908 203.323C447.194 202.922 447.622 202.644 448.105 202.547C459.875 200.217 472.465 198.567 473.215 183.657C473.22 183.542 473.2 183.427 473.154 183.321C473.108 183.215 473.038 183.122 472.95 183.047C472.862 182.973 472.758 182.92 472.646 182.892C472.534 182.864 472.417 182.862 472.305 182.887ZM473.265 144.257C473.285 136.877 473.288 129.151 473.275 121.077C473.275 120.87 473.205 120.669 473.076 120.507C472.947 120.346 472.767 120.233 472.565 120.187C462.295 117.697 447.335 115.647 441.675 127.577C439.328 132.517 438.148 138.047 438.135 144.167C438.115 150.281 439.268 155.817 441.595 160.777C447.195 172.737 462.165 170.757 472.445 168.317C472.645 168.272 472.824 168.161 472.953 168.001C473.082 167.841 473.153 167.642 473.155 167.437C473.208 159.364 473.245 151.637 473.265 144.257Z" fill="black"/>
<path d="M789.364 185.037C789.758 184.824 790.068 184.721 790.294 184.727C790.317 184.731 790.339 184.726 790.356 184.713C790.373 184.7 790.383 184.68 790.384 184.657C790.386 184.635 790.378 184.611 790.363 184.593C790.348 184.574 790.327 184.561 790.304 184.557L784.604 183.977C784.486 183.964 784.365 183.977 784.252 184.015C784.138 184.052 784.034 184.114 783.947 184.196C783.86 184.278 783.791 184.377 783.746 184.488C783.7 184.599 783.679 184.718 783.684 184.837C784.038 193.47 784.124 202.634 783.944 212.327C783.918 213.787 783.148 214.511 781.634 214.497C778.874 214.471 774.374 214.451 768.134 214.437C767.661 214.435 767.209 214.245 766.875 213.909C766.542 213.574 766.354 213.12 766.354 212.647V112.367C766.354 111.757 766.536 111.161 766.876 110.654C767.216 110.146 767.699 109.751 768.264 109.517C780.891 104.244 794.008 102.447 807.614 104.127C821.188 105.801 830.128 113.147 834.434 126.167C841.774 148.367 836.074 181.097 808.324 185.537C803.218 186.357 796.914 186.281 789.414 185.307C789.382 185.307 789.351 185.295 789.326 185.274C789.301 185.253 789.285 185.225 789.279 185.193C789.273 185.161 789.278 185.128 789.294 185.1C789.309 185.071 789.334 185.049 789.364 185.037ZM783.994 144.767C784.014 152.167 784.048 159.914 784.094 168.007C784.096 168.215 784.167 168.416 784.296 168.578C784.424 168.739 784.604 168.852 784.804 168.897C795.114 171.347 810.124 173.337 815.744 161.347C818.078 156.381 819.238 150.831 819.224 144.697C819.211 138.557 818.031 133.007 815.684 128.047C810.014 116.087 795.004 118.137 784.704 120.627C784.504 120.672 784.324 120.785 784.195 120.947C784.067 121.108 783.996 121.309 783.994 121.517C783.981 129.617 783.981 137.367 783.994 144.767Z" fill="black"/>
<path d="M986.314 133.187C986.414 131.987 986.341 130.464 986.094 128.617C985.241 122.17 981.381 118.754 974.514 118.367C966.294 117.907 957.781 118.937 948.974 121.457C948.704 121.535 948.421 121.557 948.141 121.522C947.862 121.487 947.592 121.396 947.348 121.254C947.105 121.112 946.892 120.922 946.723 120.696C946.554 120.47 946.432 120.212 946.364 119.937L944.024 110.447C943.931 110.079 943.944 109.691 944.06 109.329C944.177 108.967 944.393 108.644 944.684 108.397C945.251 107.917 946.278 107.464 947.764 107.037C957.344 104.31 967.284 103.167 977.584 103.607C988.644 104.077 998.344 108.577 1002.42 119.357C1003.49 122.177 1004.02 126.954 1004 133.687C1003.97 152.634 1003.95 167.124 1003.95 177.157C1003.95 180.417 998.034 182.367 994.854 183.167C980.574 186.76 967.398 187.214 955.324 184.527C939.044 180.897 933.314 166.827 938.034 151.647C941.504 140.517 951.964 135.387 963.344 134.427C969.891 133.874 977.218 133.754 985.324 134.067C985.572 134.076 985.814 133.989 985.999 133.825C986.183 133.661 986.296 133.432 986.314 133.187ZM985.344 147.517C975.071 147.364 968.824 147.434 966.604 147.727C958.591 148.774 954.568 152.877 954.534 160.037C954.474 175.597 976.084 172.607 985.464 169.657C985.633 169.602 985.78 169.495 985.884 169.351C985.989 169.208 986.045 169.035 986.044 168.857V148.227C986.044 148.041 985.971 147.861 985.84 147.729C985.709 147.596 985.531 147.52 985.344 147.517Z" fill="black"/>
<path d="M401.675 104.917H388.255C387.133 104.917 386.225 105.826 386.225 106.947V182.127C386.225 183.248 387.133 184.157 388.255 184.157H401.675C402.796 184.157 403.705 183.248 403.705 182.127V106.947C403.705 105.826 402.796 104.917 401.675 104.917Z" fill="black"/>
<path d="M159.135 155.797C161.745 172.327 164.865 196.877 184.025 202.707C192.505 205.277 199.475 202.877 206.405 197.957C206.565 197.837 206.805 197.774 207.125 197.767C207.282 197.761 207.438 197.798 207.577 197.872C207.716 197.947 207.832 198.057 207.914 198.191C207.997 198.325 208.042 198.479 208.046 198.636C208.049 198.794 208.011 198.949 207.935 199.087C198.605 216.017 179.635 224.887 163.345 209.837C154.105 201.287 149.235 191.917 150.535 179.397C151.375 171.317 154.038 163.414 158.525 155.687C158.559 155.628 158.61 155.582 158.672 155.554C158.733 155.525 158.802 155.517 158.868 155.529C158.935 155.541 158.996 155.573 159.044 155.621C159.091 155.669 159.123 155.73 159.135 155.797Z" fill="black"/>
</svg>
