<svg width="79" height="25" viewBox="0 0 79 25" fill="none" xmlns="http://www.w3.org/2000/svg">
<mask id="mask0_3_8720" style="mask-type:alpha" maskUnits="userSpaceOnUse" x="0" y="0" width="79" height="25">
<path fill-rule="evenodd" clip-rule="evenodd" d="M8.81497 14.4819H8.36816V4.05577H8.81497C10.5427 4.05577 11.9427 6.28992 11.9427 9.26888C11.9427 12.2477 10.5427 14.4819 8.81497 14.4819ZM9.91712 3.19189H0.205963V3.34083C1.42731 3.84723 2.11251 4.3835 2.11251 6.43886V20.6779C2.11251 22.7631 1.36771 23.4185 0.205963 23.8951V24.0441H11.1683V23.8951C9.14258 23.5377 8.36816 22.6142 8.36816 20.6779V15.3457H9.91712C15.7557 15.3457 18.6452 13.0818 18.6452 9.26888C18.6452 5.45591 15.7557 3.19189 9.91712 3.19189Z" fill="#0A0A0A"/>
<path fill-rule="evenodd" clip-rule="evenodd" d="M23.8002 6.75809C25.4683 6.75809 26.7493 5.44741 26.7493 3.83886C26.7493 2.20045 25.4683 0.889771 23.8002 0.889771C22.132 0.889771 20.8511 2.20045 20.8511 3.83886C20.8511 5.44741 22.132 6.75809 23.8002 6.75809ZM28.2386 23.8951V24.044H19.6595V23.8951C20.4936 23.5376 21.1192 22.8822 21.1192 21.6609V12.5158C21.1192 11.0859 20.7319 10.4604 19.6595 10.1327V9.98373L26.779 7.90955V21.6609C26.779 22.8822 27.4046 23.5376 28.2386 23.8951Z" fill="#0A0A0A"/>
<path fill-rule="evenodd" clip-rule="evenodd" d="M36.2484 21.6609V5.12332L29.1289 7.20064V7.34957C30.1716 7.70704 30.5885 8.53264 30.5885 9.66465V21.6609C30.5885 22.8822 29.963 23.5376 29.1289 23.8951V24.044H37.7081V23.8951C36.8739 23.5376 36.2484 22.8822 36.2484 21.6609Z" fill="#0A0A0A"/>
<path fill-rule="evenodd" clip-rule="evenodd" d="M45.7179 18.5249V2.32257L38.5984 4.42423V4.57316C39.641 4.93063 40.0581 5.72399 40.0581 6.856V21.6609C40.0581 22.8823 39.4325 23.5376 38.5984 23.8951V24.044H47.7361V23.8951C46.9019 23.5376 45.7179 21.7701 45.7179 18.5249Z" fill="#0A0A0A"/>
<path fill-rule="evenodd" clip-rule="evenodd" d="M57.7642 21.0353C57.5855 21.363 57.2578 21.5119 56.7812 21.5119C55.3514 21.5119 54.4279 18.9204 54.4279 14.8393C54.4279 11.3242 55.53 8.82191 57.0791 8.82191C57.4067 8.82191 57.6153 8.88151 57.7642 8.97084V21.0353ZM63.4241 21.6608V9.14964C61.8667 8.38564 59.9322 7.97033 57.7642 7.95916C57.7343 7.95904 57.7048 7.95816 57.6748 7.95816C51.9555 7.95816 48.3212 11.7115 48.3212 17.5799C48.3212 21.78 50.2575 24.4908 53.2959 24.4908C55.3216 24.4908 57.1983 23.2695 57.7642 21.5418C57.7642 22.9237 58.8845 24.044 60.2665 24.044H64.8837V23.8951C63.7816 23.4184 63.4241 22.8823 63.4241 21.6608Z" fill="#0A0A0A"/>
<path fill-rule="evenodd" clip-rule="evenodd" d="M77.5846 7.95813C75.0229 7.95813 72.7009 8.822 72.8876 13.3534H72.7088L72.6993 7.95813L65.8181 10.0136V10.1625C66.8309 10.4902 67.2777 11.2944 67.2777 12.9031V21.6609C67.2777 22.8823 66.6523 23.5376 65.8181 23.8951V24.044H74.993V23.8951C73.8909 23.6568 72.9376 23.1205 72.9376 21.6609V17.7289C72.9376 13.8861 74.2185 12.9924 76.125 12.9924C77.0485 12.9924 77.4953 13.1115 77.8825 13.3499H78.0314V7.95813H77.5846Z" fill="#0A0A0A"/>
</mask>
<g mask="url(#mask0_3_8720)">
<rect x="-8.4852" y="0.889771" width="95.2826" height="23.4988" fill="url(#paint0_linear_3_8720)"/>
</g>
<defs>
<linearGradient id="paint0_linear_3_8720" x1="44.1456" y1="0.889771" x2="44.1456" y2="24.3885" gradientUnits="userSpaceOnUse">
<stop stop-color="#897AE2"/>
<stop offset="1" stop-color="#E89A91"/>
</linearGradient>
</defs>
</svg>
