<svg width="105" height="43" viewBox="0 0 105 43" fill="none" xmlns="http://www.w3.org/2000/svg">
<g clip-path="url(#clip0_54_288)">
<path d="M52.5258 20.0189V18.9923C51.1816 19.7756 49.7202 20.3546 48.0388 20.3546C44.5391 20.3546 44.1382 17.9218 44.1382 15.3528V7.29047H48.0388V15.3479C48.0388 16.8903 48.3076 17.4255 49.5638 17.4255C50.3018 17.4255 51.2452 17.1336 52.301 16.7103V7.29047H56.2015V20.0141H52.5258V20.0189Z" fill="#181B2B"/>
<path d="M63.9145 20.3303C63.1764 20.3303 62.2086 20.2427 61.671 20.1308V24.5488H57.7705V7.29044H61.3826V8.09327C62.5703 7.29044 63.9194 6.95471 65.1707 6.95471C68.0398 6.95471 69.8581 8.51657 69.8581 13.0027V14.1412C69.8581 18.7684 67.5706 20.3303 63.9145 20.3303ZM65.9576 13.0075C65.9576 10.5747 65.3515 9.9276 63.8705 9.9276C63.2204 9.9276 62.5899 10.0395 61.627 10.4628V17.226C62.3211 17.3379 62.9516 17.4255 63.5577 17.4255C65.1511 17.4255 65.9576 16.8903 65.9576 14.1412V13.0075V13.0075Z" fill="#181B2B"/>
<path d="M77.1019 20.3303C76.3639 20.3303 75.3961 20.2427 74.8584 20.1308V24.5488H70.9579V7.29044H74.57V8.09327C75.7578 7.29044 77.1068 6.95471 78.3581 6.95471C81.2273 6.95471 83.0456 8.51657 83.0456 13.0027V14.1412C83.0456 18.7684 80.758 20.3303 77.1019 20.3303ZM79.1402 13.0075C79.1402 10.5747 78.5341 9.9276 77.0531 9.9276C76.403 9.9276 75.7724 10.0395 74.8095 10.4628V17.226C75.5036 17.3379 76.1341 17.4255 76.7402 17.4255C78.3337 17.4255 79.1402 16.8903 79.1402 14.1412V13.0075V13.0075Z" fill="#181B2B"/>
<path d="M87.5277 14.7056V14.8857C87.5277 16.5594 87.7526 17.4742 90.5093 17.4742C91.8095 17.4742 93.1585 17.3866 95.3092 17.2309V19.7999C94.3218 20.0432 92.528 20.3595 90.3285 20.3595C85.641 20.3595 83.6663 18.7295 83.6663 14.0634V13.3725C83.6663 8.93016 85.7974 6.96445 89.8348 6.96445C94.6347 6.96445 95.9348 10.0006 95.9348 13.6644V14.7154H87.5277V14.7056ZM92.1028 12.4042C92.1028 10.998 91.8095 9.72325 89.8152 9.72325C87.8845 9.72325 87.5522 11.0175 87.5522 12.4042V12.5842H92.1028V12.4042Z" fill="#181B2B"/>
<path d="M100.847 10.7985V20.0189H96.9466V7.29043H100.578V8.3414C101.834 7.20285 103.403 6.95956 104.797 6.95956V10.2195C103.384 10.2147 101.859 10.4628 100.847 10.7985Z" fill="#181B2B"/>
<path d="M52.3244 39.6419V31.6282C52.3244 29.9739 51.8991 29.5068 50.643 29.5068C49.6556 29.5068 48.6487 29.8426 48.0622 30.1102V39.6419H44.1617V22.2522H48.0622V27.4779C49.0495 26.9864 50.4621 26.5826 51.8991 26.5826C55.4428 26.5826 56.2298 28.6359 56.2298 31.5844V39.6419H52.3244Z" fill="#181B2B"/>
<path d="M64.9458 39.642V38.8148C64.1149 39.3743 62.6339 39.9777 60.9329 39.9777C58.5085 39.9777 57.1888 38.7515 57.1888 36.3382V35.8224C57.1888 32.4311 59.7892 32.0273 63.4257 32.0273H64.6135V31.3363C64.6135 29.7745 64.2762 29.4631 62.2575 29.4631C61.1138 29.4631 59.5643 29.5312 58.1322 29.6869V27.366C58.8507 27.0984 60.9134 26.5826 63.064 26.5826C67.0574 26.5826 68.514 27.8769 68.514 31.3363V39.642H64.9458ZM64.7454 34.0368H63.4453C61.6759 34.0368 60.9134 34.2363 60.9134 35.6911V36.2068C60.9134 37.2091 61.5195 37.5011 62.3699 37.5011C63.3768 37.5011 64.3642 37.1216 64.7454 36.8977V34.0368Z" fill="#181B2B"/>
<path d="M78.1088 39.642V31.5845C78.1088 30.0421 77.8156 29.5069 76.5838 29.5069C75.8653 29.5069 74.878 29.7988 73.8466 30.2221V39.642H69.9461V26.9184H73.6218V27.945C74.922 27.1422 76.359 26.5826 77.8156 26.5826C81.6721 26.5826 82.0093 28.816 82.0093 31.5845V39.642H78.1088Z" fill="#181B2B"/>
<path d="M91.4967 39.642V38.9948C90.6217 39.5301 89.4095 39.9777 87.8845 39.9777C84.8345 39.9777 83.0407 38.1239 83.0407 34.1292V32.5674C83.0407 28.1007 85.2597 26.5827 88.8474 26.5827C89.7663 26.5827 90.4849 26.6702 91.2034 26.7821V22.2523H95.1039V39.642H91.4967ZM91.2523 29.6869C90.5582 29.575 89.8152 29.5069 89.3216 29.5069C87.7281 29.5069 86.9461 29.974 86.9461 32.5674V34.1292C86.9461 36.2701 87.5082 37.0291 89.1456 37.0291C89.8837 37.0291 90.6022 36.8491 91.2523 36.5815V29.6869Z" fill="#181B2B"/>
<path d="M38.4035 29.2346C36.204 28.0085 33.4375 26.7872 31.7903 26.1741C31.7952 20.8658 31.7903 0.634521 31.7903 0.634521L22.4789 3.44685C21.0223 3.88475 20.0203 5.2228 20.0203 6.74087L20.0154 11.8887L8.94934 15.2119C7.93755 15.5184 7.23859 16.4429 7.22881 17.4939V17.5133L3.32342 18.6811C1.86195 19.119 0.859939 20.457 0.855052 21.98L0.845276 36.1292C0.845276 36.4309 1.00658 36.7033 1.26563 36.8542L11.0853 42.4934C11.4764 42.7172 11.9798 42.6151 12.2486 42.255C12.5126 41.9047 12.4588 41.4133 12.1313 41.1262L5.59138 35.3604C4.83865 34.6987 4.40852 33.745 4.40852 32.7427C4.40852 32.7427 4.40852 31.0592 4.41341 30.5873C4.98529 30.2175 6.84267 29.3222 7.77625 29.0059C8.86624 31.5312 10.9729 33.385 13.8176 34.0613C14.1305 35.3994 15.4013 36.9904 16.0856 37.5646C16.2322 35.7448 17.029 32.9033 19.1845 31.1857C17.2929 31.2003 14.6192 30.6456 13.8176 27.6095C16.0074 27.3127 21.2081 27.1181 28.271 29.5557C28.271 30.0569 28.271 31.6188 28.2661 32.8254C28.2661 33.8083 27.8409 34.7425 27.0979 35.3945L20.5629 41.1408C20.2794 41.3889 20.2012 41.7928 20.3674 42.1285L20.3771 42.148C20.602 42.6005 21.1641 42.7756 21.604 42.5226L31.4041 36.898C31.6779 36.7423 31.844 36.4552 31.844 36.1438L31.8392 30.9522L33.8969 31.9107C33.9018 31.9058 37.6557 29.6871 38.4035 29.2346ZM7.22881 25.5562C6.39788 25.8433 5.02928 26.4418 4.38897 26.7726C4.38897 25.7411 4.38897 22.053 4.38897 22.053L7.22881 21.1918C7.22881 21.1966 7.21904 24.6366 7.22881 25.5562ZM13.6319 23.9214C12.7619 24.0625 11.7403 24.2328 10.7921 24.4712C10.7969 23.2499 10.7969 18.3502 10.7969 18.3502L13.6319 17.489C13.6319 17.4939 13.6368 22.5493 13.6319 23.9214ZM20.0154 23.6343C19.2676 23.5856 17.9137 23.5856 17.1756 23.61C17.1805 21.8778 17.1756 16.4283 17.1756 16.4283L20.0154 15.572C20.0154 15.572 20.0252 21.9654 20.0154 23.6343ZM28.2466 24.9821C26.3305 24.4274 24.9473 24.1987 23.5836 23.9992C23.5836 20.9241 23.5836 11.5432 23.5885 8.08378C23.5885 7.31015 24.0968 6.63383 24.8398 6.41487L28.2466 5.40769C28.2466 5.40769 28.2564 21.9265 28.2466 24.9821Z" fill="#4AD569"/>
</g>
<defs>
<clipPath id="clip0_54_288">
<rect width="103.95" height="42" fill="white" transform="translate(0.845276 0.63916)"/>
</clipPath>
</defs>
</svg>
